<svg width="968.705029296875px" height="158.24000549316406px" xmlns="http://www.w3.org/2000/svg" viewBox="-234.35251464843748 -4.120002746582031 968.705029296875 158.24000549316406" style="background:#596886" preserveAspectRatio="xMidYMid"><defs><filter id="editing-hover" x="-100%" y="-100%" width="300%" height="300%"><feFlood flood-color="#052b4a" result="flood"></feFlood><feComposite operator="in" in2="SourceAlpha" in="flood" result="shadow"></feComposite><feOffset dx="-6" dy="-4.7" in="SourceGraphic" result="offset-1"></feOffset><feOffset dx="6" dy="4.7" in="shadow" result="offset-2"></feOffset><feMerge><feMergeNode in="offset-2"></feMergeNode><feMergeNode in="offset-1"></feMergeNode></feMerge></filter></defs><g filter="url(#editing-hover)"><g transform="translate(-99.16998720169067, 104.30500411987305)"><path d="M1.48 0L1.48-12.14L5.18-12.14L5.18-45.44L1.48-45.44L1.48-57.57L35.45-57.57L35.45-57.57Q44.99-57.57 50.02-53.65L50.02-53.65L50.02-53.65Q55.06-49.73 55.06-40.92L55.06-40.92L55.06-40.92Q55.06-35.96 53.06-32.34L53.06-32.34L53.06-32.34Q51.06-28.71 47.36-27.31L47.36-27.31L47.43-26.57L47.43-26.57Q54.54-25.46 54.54-17.83L54.54-17.83L54.54-12.14L58.02-12.14L58.02 0L34.56 0L34.56-17.39L34.56-17.39Q34.56-20.28 33.71-21.76L33.71-21.76L33.71-21.76Q32.86-23.24 31.04-23.75L31.04-23.75L31.04-23.75Q29.23-24.27 25.90-24.27L25.90-24.27L25.90-12.14L30.78-12.14L30.78 0L1.48 0ZM25.90-33.30L29.90-33.30L29.90-33.30Q32.04-33.30 33.11-34.45L33.11-34.45L33.11-34.45Q34.19-35.59 34.19-38.04L34.19-38.04L34.19-40.70L34.19-40.70Q34.19-43.14 33.11-44.29L33.11-44.29L33.11-44.29Q32.04-45.44 29.90-45.44L29.90-45.44L25.90-45.44L25.90-33.30ZM100.42-12.14L103.67-12.14L103.67 0L84.14 0L84.14-5.03L84.14-5.03Q82.51-2.66 79.59-0.81L79.59-0.81L79.59-0.81Q76.66 1.04 72.45 1.04L72.45 1.04L72.45 1.04Q66.90 1.04 63.71-1.92L63.71-1.92L63.71-1.92Q60.53-4.88 60.53-10.29L60.53-10.29L60.53-10.29Q60.53-24.27 84.29-24.64L84.29-24.64L84.29-24.64Q84.06-27.16 82.36-28.08L82.36-28.08L82.36-28.08Q80.66-29.01 76.59-29.01L76.59-29.01L76.59-29.01Q73.26-29.01 69.45-28.30L69.45-28.30L69.45-28.30Q65.64-27.60 62.46-26.42L62.46-26.42L62.46-40.03L62.46-40.03Q66.38-41.00 70.97-41.59L70.97-41.59L70.97-41.59Q75.55-42.18 79.92-42.18L79.92-42.18L79.92-42.18Q90.95-42.18 95.68-38.18L95.68-38.18L95.68-38.18Q100.42-34.19 100.42-25.83L100.42-25.83L100.42-12.14ZM84.14-16.87L84.14-17.32L84.14-17.32Q80.81-17.32 78.99-16.43L78.99-16.43L78.99-16.43Q77.18-15.54 77.18-13.47L77.18-13.47L77.18-13.47Q77.18-12.21 77.96-11.43L77.96-11.43L77.96-11.43Q78.74-10.66 80.14-10.66L80.14-10.66L80.14-10.66Q82.07-10.66 83.10-12.28L83.10-12.28L83.10-12.28Q84.14-13.91 84.14-16.87L84.14-16.87ZM124.02 1.04L124.02 1.04Q114.70 1.04 106.04-1.92L106.04-1.92L106.04-12.88L118.03-12.88L118.03-12.14L118.03-12.14Q118.03-8.58 122.54-8.58L122.54-8.58L122.54-8.58Q126.54-8.58 126.54-11.32L126.54-11.32L126.54-11.32Q126.54-12.80 125.39-13.54L125.39-13.54L125.39-13.54Q124.25-14.28 121.36-14.80L121.36-14.80L117.66-15.47L117.66-15.47Q106.04-17.54 106.04-28.64L106.04-28.64L106.04-28.64Q106.04-35.08 110.93-38.63L110.93-38.63L110.93-38.63Q115.81-42.18 124.10-42.18L124.10-42.18L124.10-42.18Q133.35-42.18 139.71-39.07L139.71-39.07L139.71-28.79L128.46-28.79L128.46-29.53L128.46-29.53Q128.46-31.01 127.46-31.78L127.46-31.78L127.46-31.78Q126.47-32.56 124.54-32.56L124.54-32.56L124.54-32.56Q120.84-32.56 120.84-30.19L120.84-30.19L120.84-30.19Q120.84-28.93 121.88-28.27L121.88-28.27L121.88-28.27Q122.91-27.60 125.65-27.01L125.65-27.01L129.87-26.20L129.87-26.20Q136.46-24.94 139.27-21.53L139.27-21.53L139.27-21.53Q142.08-18.13 142.08-12.80L142.08-12.80L142.08-12.80Q142.08-6.07 137.38-2.52L137.38-2.52L137.38-2.52Q132.68 1.04 124.02 1.04L124.02 1.04ZM189.88-12.14L193.14-12.14L193.14 0L172.86 0L172.86-5.77L172.86-5.77Q167.54 1.04 159.54 1.04L159.54 1.04L159.54 1.04Q153.40 1.04 150.33-2.81L150.33-2.81L150.33-2.81Q147.26-6.66 147.26-13.39L147.26-13.39L147.26-29.01L144.00-29.01L144.00-41.14L164.28-41.14L164.28-16.87L164.28-16.87Q164.28-14.43 165.35-13.28L165.35-13.28L165.35-13.28Q166.43-12.14 168.57-12.14L168.57-12.14L168.57-12.14Q170.72-12.14 171.79-13.28L171.79-13.28L171.79-13.28Q172.86-14.43 172.86-16.87L172.86-16.87L172.86-29.01L168.87-29.01L168.87-41.14L189.88-41.14L189.88-12.14ZM218.74 0.07L195.21 0.07L195.21-12.14L198.47-12.14L198.47-45.44L195.21-45.44L195.21-57.57L215.49-57.57L215.49-12.14L218.74-12.14L218.74 0.07ZM243.46 0L243.46-12.14L247.16-12.14L247.16-45.44L243.46-45.44L243.46-57.57L275.95-57.57L275.95-57.57Q285.49-57.57 290.52-53.46L290.52-53.46L290.52-53.46Q295.56-49.36 295.56-40.18L295.56-40.18L295.56-40.18Q295.56-31.01 290.52-26.90L290.52-26.90L290.52-26.90Q285.49-22.79 275.95-22.79L275.95-22.79L267.88-22.79L267.88-12.14L274.98-12.14L274.98 0L243.46 0ZM267.88-33.30L270.40-33.30L270.40-33.30Q274.69-33.30 274.69-38.04L274.69-38.04L274.69-40.70L274.69-40.70Q274.69-43.14 273.62-44.29L273.62-44.29L273.62-44.29Q272.54-45.44 270.40-45.44L270.40-45.44L267.88-45.44L267.88-33.30ZM316.57-45.21L301.48-45.21L301.48-57.57L316.57-57.57L316.57-45.21ZM321.46 0L297.92 0L297.92-12.14L301.18-12.14L301.18-29.01L297.92-29.01L297.92-41.14L318.20-41.14L318.20-12.14L321.46-12.14L321.46 0ZM355.13-42.18L355.13-42.18Q356.61-42.18 357.94-41.88L357.94-41.88L357.94-41.88Q359.27-41.59 360.16-41.14L360.16-41.14L360.16-27.01L360.16-27.01Q357.12-28.27 353.65-28.27L353.65-28.27L353.65-28.27Q348.98-28.27 346.47-25.83L346.47-25.83L346.47-25.83Q343.95-23.38 343.95-18.57L343.95-18.57L343.95-12.14L350.61-12.14L350.61 0L323.68 0L323.68-12.14L326.93-12.14L326.93-29.01L323.68-29.01L323.68-41.14L343.95-41.14L343.95-35.74L343.95-35.74Q346.02-38.85 348.69-40.52L348.69-40.52L348.69-40.52Q351.35-42.18 355.13-42.18L355.13-42.18ZM380.51 1.04L380.51 1.04Q371.18 1.04 362.53-1.92L362.53-1.92L362.53-12.88L374.51-12.88L374.51-12.14L374.51-12.14Q374.51-8.58 379.03-8.58L379.03-8.58L379.03-8.58Q383.02-8.58 383.02-11.32L383.02-11.32L383.02-11.32Q383.02-12.80 381.88-13.54L381.88-13.54L381.88-13.54Q380.73-14.28 377.84-14.80L377.84-14.80L374.14-15.47L374.14-15.47Q362.53-17.54 362.53-28.64L362.53-28.64L362.53-28.64Q362.53-35.08 367.41-38.63L367.41-38.63L367.41-38.63Q372.29-42.18 380.58-42.18L380.58-42.18L380.58-42.18Q389.83-42.18 396.20-39.07L396.20-39.07L396.20-28.79L384.95-28.79L384.95-29.53L384.95-29.53Q384.95-31.01 383.95-31.78L383.95-31.78L383.95-31.78Q382.95-32.56 381.03-32.56L381.03-32.56L381.03-32.56Q377.33-32.56 377.33-30.19L377.33-30.19L377.33-30.19Q377.33-28.93 378.36-28.27L378.36-28.27L378.36-28.27Q379.40-27.60 382.14-27.01L382.14-27.01L386.35-26.20L386.35-26.20Q392.94-24.94 395.75-21.53L395.75-21.53L395.75-21.53Q398.56-18.13 398.56-12.80L398.56-12.80L398.56-12.80Q398.56-6.07 393.86-2.52L393.86-2.52L393.86-2.52Q389.17 1.04 380.51 1.04L380.51 1.04ZM422.98 1.04L422.98 1.04Q412.48 1.04 406.56-4.48L406.56-4.48L406.56-4.48Q400.64-9.99 400.64-20.57L400.64-20.57L400.64-20.57Q400.64-31.15 406.56-36.67L406.56-36.67L406.56-36.67Q412.48-42.18 422.98-42.18L422.98-42.18L422.98-42.18Q433.64-42.18 439.49-36.59L439.49-36.59L439.49-36.59Q445.33-31.01 445.33-20.57L445.33-20.57L445.33-20.57Q445.33-9.99 439.41-4.48L439.41-4.48L439.41-4.48Q433.49 1.04 422.98 1.04L422.98 1.04ZM422.98-12.14L422.98-12.14Q425.13-12.14 426.20-13.28L426.20-13.28L426.20-13.28Q427.28-14.43 427.28-16.87L427.28-16.87L427.28-24.27L427.28-24.27Q427.28-26.71 426.20-27.86L426.20-27.86L426.20-27.86Q425.13-29.01 422.98-29.01L422.98-29.01L422.98-29.01Q420.84-29.01 419.76-27.86L419.76-27.86L419.76-27.86Q418.69-26.71 418.69-24.27L418.69-24.27L418.69-16.87L418.69-16.87Q418.69-14.43 419.76-13.28L419.76-13.28L419.76-13.28Q420.84-12.14 422.98-12.14L422.98-12.14ZM471.23 0.07L447.70 0.07L447.70-12.14L450.96-12.14L450.96-45.44L447.70-45.44L447.70-57.57L467.98-57.57L467.98-12.14L471.23-12.14L471.23 0.07ZM491.88 1.04L491.88 1.04Q484.03 1.04 480.07-2.77L480.07-2.77L480.07-2.77Q476.12-6.59 476.12-15.61L476.12-15.61L476.12-29.01L472.86-29.01L472.86-41.14L472.86-41.14Q475.67-41.14 477.08-42.59L477.08-42.59L477.08-42.59Q478.48-44.03 478.48-46.55L478.48-46.55L478.48-49.88L494.17-49.88L494.17-41.14L504.16-41.14L504.16-29.01L494.17-29.01L494.17-16.87L494.17-16.87Q494.17-14.43 495.24-13.28L495.24-13.28L495.24-13.28Q496.32-12.14 498.46-12.14L498.46-12.14L498.46-12.14Q501.28-12.14 504.61-12.80L504.61-12.80L504.61-1.18L504.61-1.18Q502.53-0.37 499.02 0.33L499.02 0.33L499.02 0.33Q495.50 1.04 491.88 1.04L491.88 1.04ZM546.86-12.14L550.12-12.14L550.12 0L530.58 0L530.58-5.03L530.58-5.03Q528.95-2.66 526.03-0.81L526.03-0.81L526.03-0.81Q523.11 1.04 518.89 1.04L518.89 1.04L518.89 1.04Q513.34 1.04 510.16-1.92L510.16-1.92L510.16-1.92Q506.97-4.88 506.97-10.29L506.97-10.29L506.97-10.29Q506.97-24.27 530.73-24.64L530.73-24.64L530.73-24.64Q530.51-27.16 528.80-28.08L528.80-28.08L528.80-28.08Q527.10-29.01 523.03-29.01L523.03-29.01L523.03-29.01Q519.70-29.01 515.89-28.30L515.89-28.30L515.89-28.30Q512.08-27.60 508.90-26.42L508.90-26.42L508.90-40.03L508.90-40.03Q512.82-41.00 517.41-41.59L517.41-41.59L517.41-41.59Q522.00-42.18 526.36-42.18L526.36-42.18L526.36-42.18Q537.39-42.18 542.12-38.18L542.12-38.18L542.12-38.18Q546.86-34.19 546.86-25.83L546.86-25.83L546.86-12.14ZM530.58-16.87L530.58-17.32L530.58-17.32Q527.25-17.32 525.44-16.43L525.44-16.43L525.44-16.43Q523.62-15.54 523.62-13.47L523.62-13.47L523.62-13.47Q523.62-12.21 524.40-11.43L524.40-11.43L524.40-11.43Q525.18-10.66 526.58-10.66L526.58-10.66L526.58-10.66Q528.51-10.66 529.54-12.28L529.54-12.28L529.54-12.28Q530.58-13.91 530.58-16.87L530.58-16.87ZM598.36-12.14L601.62-12.14L601.62 0L578.24 0L578.24-12.14L581.34-12.14L581.34-24.27L581.34-24.27Q581.34-26.71 580.31-27.86L580.31-27.86L580.31-27.86Q579.27-29.01 577.20-29.01L577.20-29.01L577.20-29.01Q572.76-29.01 572.76-24.27L572.76-24.27L572.76-12.14L575.87-12.14L575.87 0L552.48 0L552.48-12.14L555.74-12.14L555.74-29.01L552.48-29.01L552.48-41.14L572.76-41.14L572.76-35.37L572.76-35.37Q578.09-42.18 586.08-42.18L586.08-42.18L586.08-42.18Q592.22-42.18 595.29-38.33L595.29-38.33L595.29-38.33Q598.36-34.48 598.36-27.75L598.36-27.75L598.36-12.14ZM626.04 1.04L626.04 1.04Q615.53 1.04 609.61-4.48L609.61-4.48L609.61-4.48Q603.69-9.99 603.69-20.57L603.69-20.57L603.69-20.57Q603.69-31.15 609.61-36.67L609.61-36.67L609.61-36.67Q615.53-42.18 626.04-42.18L626.04-42.18L626.04-42.18Q636.70-42.18 642.54-36.59L642.54-36.59L642.54-36.59Q648.39-31.01 648.39-20.57L648.39-20.57L648.39-20.57Q648.39-9.99 642.47-4.48L642.47-4.48L642.47-4.48Q636.55 1.04 626.04 1.04L626.04 1.04ZM626.04-12.14L626.04-12.14Q628.19-12.14 629.26-13.28L629.26-13.28L629.26-13.28Q630.33-14.43 630.33-16.87L630.33-16.87L630.33-24.27L630.33-24.27Q630.33-26.71 629.26-27.86L629.26-27.86L629.26-27.86Q628.19-29.01 626.04-29.01L626.04-29.01L626.04-29.01Q623.89-29.01 622.82-27.86L622.82-27.86L622.82-27.86Q621.75-26.71 621.75-24.27L621.75-24.27L621.75-16.87L621.75-16.87Q621.75-14.43 622.82-13.28L622.82-13.28L622.82-13.28Q623.89-12.14 626.04-12.14L626.04-12.14ZM684.65 0L662.60 0L653.27-29.01L650.16-29.01L650.16-41.14L673.03-41.14L673.03-29.01L669.92-29.01L673.84-14.36L674.58-14.36L678.51-29.01L675.40-29.01L675.40-41.14L696.86-41.14L696.86-29.01L693.75-29.01L684.65 0Z" fill="#ffd5af"></path></g></g><style>text {
  font-size: 64px;
  font-family: Arial Black;
  dominant-baseline: central;
  text-anchor: middle;
}</style></svg>